# xmcd
#
# Track frame offsets: 
#        150
#        13193
#        29378
#        41213
#        58433
#        74057
#        97900
#        117731
#        130401
#        141790
#        158694
#        170978
#        190593
#        207848
#        228102
#        243487
#
# Disc length: 3457 seconds
#
# Revision: 0
# Processed by: cddbd v1.5.2PL0 Copyright (c) Steve Scherf et al.
# Submitted via: ExactAudioCopy v0.95a5
#
DISCID=f10d7f10
DTITLE=Corey Harris - Live in Vienna Austria April 20, 2016
DYEAR=2016
DGENRE=Blues
TTITLE0=High Fever Blues
TTITLE1=Johnny Gilmore Blues
TTITLE2=Black Woman Gates
TTITLE3=Jack Of Diamonds
TTITLE4=Lynch Blues
TTITLE5=Special Ride Blues
TTITLE6=Catfish Blues
TTITLE7=CC Pill Blues
TTITLE8=Everybody Got to Change Sometime
TTITLE9=CC Rider
TTITLE10=Parchman Farm
TTITLE11=Devil Got My Woman
TTITLE12=Money Eye
TTITLE13=Daily Bread
TTITLE14=Keep Your Lamp Trimmed and Burrning
TTITLE15=By and By Going to See the King
EXTD=
EXTT0=
EXTT1=
EXTT2=
EXTT3=
EXTT4=
EXTT5=
EXTT6=
EXTT7=
EXTT8=
EXTT9=
EXTT10=
EXTT11=
EXTT12=
EXTT13=
EXTT14=
EXTT15=
PLAYORDER=
